<svg width="24" height="20" viewBox="0 0 24 20" fill="none" xmlns="http://www.w3.org/2000/svg">
<path d="M12 6C14.2091 6 16 7.79086 16 10C16 12.2091 14.2091 14 12 14C9.79086 14 8 12.2091 8 10C8 7.79086 9.79086 6 12 6Z" fill="#A4A9AF" fill-opacity="0.78"/>
<path d="M12 1C16.9706 1 21.5147 4.18823 23.5021 9C21.5147 13.8118 16.9706 17 12 17C7.02944 17 2.48528 13.8118 0.497902 9C2.48528 4.18823 7.02944 1 12 1ZM12 3C7.79754 3 3.97172 5.71942 2.26777 10C3.97172 14.2806 7.79754 17 12 17C16.2025 17 20.0283 14.2806 21.7322 10C20.0283 5.71942 16.2025 3 12 3Z" fill="#A4A9AF" fill-opacity="0.78"/>
</svg>
